<svg xmlns="http://www.w3.org/2000/svg" width="23" height="14" viewBox="0 0 23 14">
  <path fill="#B4BBBE" d="M7.416.075C3.356.075.065 3.191.065 7.035s3.291 6.96 7.35 6.96c4.06 0 7.352-3.116 7.352-6.96a6.59 6.59 0 0 0-.152-1.392l-.04-.154H7.416v2.32h4.901c-.39 2.194-2.473 3.867-4.9 3.867-1.3 0-2.547-.489-3.466-1.36a4.517 4.517 0 0 1-1.435-3.28 4.52 4.52 0 0 1 1.435-3.282 5.042 5.042 0 0 1 3.465-1.359c1.225 0 2.342.43 3.202 1.134L12.374 1.9C11.022.724 9.252.073 7.416.075zM18.851 3.17v2.32h-2.45v1.546h2.45v2.32h1.633v-2.32h2.45V5.49h-2.45V3.17h-1.633z"/>
</svg>
