<svg xmlns="http://www.w3.org/2000/svg" width="25" height="25" viewBox="0 0 25 25">
  <path fill="#EFF3F9" d="M25 21.528A3.472 3.472 0 0 1 21.528 25H3.472A3.472 3.472 0 0 1 0 21.528V3.472A3.472 3.472 0 0 1 3.472 0h18.056A3.472 3.472 0 0 1 25 3.472v18.056zm-9.21-10.359l-.036-.143H9.462v2.153h4.243a4.305 4.305 0 0 1-8.551-.717 4.308 4.308 0 0 1 4.308-4.308c1.076 0 2.059.398 2.814 1.052l1.544-1.512a6.462 6.462 0 1 0 1.97 3.475zm8.21-.26h-2.463V8.444h-1.074v2.463H18v1.086h2.463v2.463h1.074v-2.463H24v-1.086z"/>
</svg>
