<svg xmlns="http://www.w3.org/2000/svg" width="18" height="14" viewBox="0 0 18 14">
  <path fill="#B4BBBE" d="M18 1.615c-.675.323-1.35.431-2.137.539.787-.43 1.35-1.077 1.575-1.939-.675.431-1.463.647-2.363.862A4.018 4.018 0 0 0 12.375 0c-1.912 0-3.6 1.615-3.6 3.554 0 .323 0 .538.112.754C5.85 4.2 3.037 2.8 1.237.646c-.337.539-.45 1.077-.45 1.83 0 1.186.675 2.262 1.688 2.909-.563 0-1.125-.216-1.688-.431 0 1.723 1.238 3.123 2.925 3.446-.337.108-.675.108-1.012.108-.225 0-.45 0-.675-.108.45 1.4 1.8 2.477 3.488 2.477-1.238.97-2.813 1.508-4.613 1.508H0C1.688 13.354 3.6 14 5.625 14c6.75 0 10.462-5.385 10.462-10.015v-.431c.788-.539 1.463-1.185 1.913-1.939z"/>
</svg>
