<svg xmlns="http://www.w3.org/2000/svg" width="904" height="830" viewBox="0 0 904 830">
  <g fill="none" fill-rule="evenodd">
    <g fill="#FFF" fill-rule="nonzero">
      <path d="M1.363 349.674c-.355-.06-.564-.15-.89-.24-.205.36-.471.535-.471.95 0 3.742 1.45 5.764 3.2 9.027.952 1.783 1.308 2.968 2.493 4.632-.412-5.286-4.332-7.57-4.332-12.855v-1.514zm52.865-113.163c-1.962.595-2.878 1.843-3.8 3.682.414.15.71.355 1.188.355 1.869 0 2.466-2.168 2.612-4.037M501.566 78.73c0 1.219.595 1.902 1.185 2.942.09-1.398.565-2.168.359-3.563a7.746 7.746 0 0 0-1.427-.358c-.057.388-.117.594-.117.98m19.342 46.636c.03-.266.12-.445.12-.71 0-.3-.153-.92-.24-1.19-.444-.89-.474-2.018-1.423-2.018-.74 0-1.156.445-1.663.95.979 1.367 1.838 1.988 3.206 2.968m-5.105-35.265c-.385 0-.441-.594-.83-.594-.355 0-.594.239-.95.239-.945 0-1.659-.834-1.659-1.783 0-1.099 1.182-1.275 1.66-2.258-.714-.295-1.424-.654-1.424-1.454 0-.534.093-.86.12-1.394.504 0 .773.12 1.274.12 1.746 0 3.651-.954.501-.954-1.032 0-2.011-.74-2.011-1.779 0-.714.474-1.07.474-1.78 0-.982-1.337.95-1.782 1.78-.8 1.424-2.4 1.305-4.03 1.305.057.833.352 1.308.352 2.138 0 2.168-.295 3.416-.478 5.58 3.622 0 5.434 2.139 9.052 2.139.65 0 1.039-.09 1.69 0 0-.8.033-1.219 0-2.019l-.416-.355c-.474.531-.8 1.069-1.543 1.069M381.487 33.698c1.125.654.68 2.198 1.779 2.849.975.564 1.895-.027 2.964.358 1.218.445 1.573 1.335 2.492 2.254.77-.594.77-1.424 1.544-2.018 1.125-.86 2.284-.621 3.323-1.544 1.57-1.394 1.686-3.918 3.797-3.918.474 0 .71.117 1.185.236.8-1.6 2.254-2.254 2.254-4.034 0-1.162-1.6-.952-2.254-1.902-1.155-1.63-1.78-2.792-3.651-3.562-.236 2.048.122 3.177 0 5.225-.588-1.128-.651-2.612-1.926-2.612-1.304 0-2.791.59-2.791 1.899 0 .923.15 1.454 0 2.373-.767-1.364-.266-3.559-1.836-3.559s-2.283 1.07-3.797 1.425c.296 1.185.8 1.69 1.185 2.848l-.475.12c-1.334-.98-1.902-1.96-3.438-2.613-1.01-.415-1.989-.71-2.254-1.78h.946c.056-.328.15-.537.236-.833-1.87-.445-2.463-1.604-4.266-2.493-.036.179-.239.269-.239.474 0 3.978 2.25 5.996 2.25 9.977 1.19.06 1.96.236 2.972.83"/>
      <path d="M379.347 36.785c.773 0 1.215-.326 1.779-.83-1.275-1.279-2.373-1.81-4.149-2.019-.033-.269-.09-.445-.123-.714l.478-.95c-.71-.56-1.367-.355-2.254-.355.236-1.779 1.301-2.732.95-4.511-.183-.774-.419-1.249-.833-1.903-1.249 1.249-1.75 2.198-3.323 2.972l-.12.474c.356.117.595.206.95.356l-.475.95c.538 1.334 1.902 1.752 1.902 3.206 0 .98-1.397.83-2.377.83-.295 0-.444-.235-.71-.355h-.95c-.149.95-.178 1.544-.597 2.374 1.487-.206 2.198-.83 3.685-.83 2.46 0 3.707 1.305 6.167 1.305m450.187 272.991c.064-.206.356-.236.356-.475 0-1.663-1.368-2.257-2.374-3.562-1.364-1.78-1.779-3.798-4.033-4.157.651 3.978 3.114 5.522 6.051 8.194m35.362 41.443c1.394.684.83 2.224 1.423 3.562.326.74 1.066.89 1.544 1.544 1.6-2.022.176-4.127 1.304-6.414 1.156-2.314 1.305-3.858 2.254-6.295.83-2.194 2.254-3.233 2.254-5.577 0-1.933-1.514-2.613-2.254-4.396l-.474-.12c0 1.013.355 1.604.355 2.613 0 2.109-1.07 3.327-2.732 4.632-.531.418-1.42.478-1.42 1.188 0 .744.354 1.129.354 1.87v3.147c0 1.929-1.453 2.702-2.608 4.246M571.812 154.104c.797.388 1.361.355 2.254.474 0-.92-.18-1.603-.83-2.254-.418.83-.923 1.07-1.424 1.78m61.465-141.542c.03-.209.236-.269.236-.474 0-.714-.505-1.07-.83-1.664-.774.595-1.424 1.13-1.424 2.138 0 .386.235.595.355.95.325-.68.916-.95 1.663-.95M568.61 145.79c.796 0 .826-1.068 1.42-1.543.564-.475 1.159-.236 1.899-.236.15-1.693.803-3.562 2.492-3.562.714 0 .95.83 1.66.83.478 0 .95-.355.95-.83 0-1.633-2.67-1.484-4.153-.83-2.938 1.335-6.645 1.75-6.645 4.987 0 1.039 1.338 1.185 2.376 1.185m-33.49 462.745c-1.072 0-2.466-.236-2.466-1.308 0-.77.597-1.126.597-1.9 0-.859-.923-1.3-1.786-1.3-5.218 0-8.271.8-13.167 2.609-2.374.89-4.478-.146-6.29 1.544-1.185 1.099-1.305 2.403-1.305 4.033 0 1.1 1.484.953 2.374 1.548.743.504.89 1.543 1.809 1.543h2.818l2.376.356c1.836 0 2.905-.027 4.74-.24.06-.298.242-.414.242-.71 0-.239-.295-.269-.358-.475l.475-.235h2.844c1.278 1.274 2.051 1.958 3.565 2.964.654-1.63 1.663-2.493 1.663-4.272 0-1.07 1.626-.595 2.49-1.186.949-.654.534-1.786.83-2.971-.562-.033-.89 0-1.451 0m-50.716-30.914c-1.069-.933-.793-.508 0 0m57.387 30.084c-1.78.295-2.553 1.364-3.8 2.613 1.46 1.454 2.97 1.424 4.988 1.424.71 0 .923-.65 1.54-.95-.65-1.337-1.45-2.347-2.728-3.087m157.577 75.166c.09-.568-.15-1.102-.236-1.663-1.009.235-1.513.83-2.137 1.663.923 0 1.454.083 2.373 0m61.108 116.485l-.475-.12c-.355.89-.59 1.428-.833 2.377.359.057.594.236.953.236.239 0 .385-.18.59-.236l-.116-1.783-.12-.474zm2.849-60.321c-.893-.295-2.257 0-2.257.95 0 .268.093.444.12.71 1.009-.236 1.543-.83 2.137-1.66m.594-15.319c-3.827 0-4.485-3.888-7.24-6.647-.624 1.6-1.035 2.73-2.492 3.56 1.427.713 2.021 1.988 2.021 3.565 0 .266-.299.292-.478.472l.12.478c1.838 0 2.223 2.015 2.964 3.678.567 1.278 1.098 1.959 1.546 3.327.89-.478 1.1-1.664 2.135-1.664.77 0 1.188.296 1.902.595.083-.27.235-.449.235-.744 0-.77-.093-1.218-.03-1.985-.448 0-.713.116-1.158.116-.239 0-.269-.299-.475-.359.475-.65.95-1.006.95-1.81v-2.582zm-72.976 21.255l.475.236c.92-.355 1.54-.654 2.134-1.42-.86-.21-1.3-.509-2.134-.715-.329.651-.385 1.156-.475 1.9m74.278-11.757c-.65 1.245-1.895 1.544-3.319 1.544-.65 0-1.009-.358-1.663-.358-1.039 0-1.895.657-2.134 1.663 1.185.594 1.985.953 3.32.953 1.101 0 1.838-.21 2.731-.83.62.62.916 1.099 1.301 1.899.95-.478 1.514-.8 2.257-1.544-.89-1.189-1.454-1.843-2.015-3.207l-.478-.12zm-75.107 4.099h2.313c-.06-.598-.03-.893 0-1.484-1.069.235-1.484.83-2.313 1.484m53.393 82.704c-.176-.03-.266-.236-.475-.236-1.6 0-1.185 2.28-2.134 3.559.89.803.98 1.723 1.78 2.613.799-1.01.563-2.049 1.307-3.088l-.478-.95v-1.898zM634.227 2.35c.74-.475 1.005-1.07 1.304-1.9-.893-.444-2.493-.504-2.493.475 0 .71.804.86 1.189 1.425"/>
      <path d="M877.71 421.752c0-1.75.477-2.759.477-4.512a9.662 9.662 0 0 0-.554-3.24c-1.408-4.044-5.026-6.63-5.026-11.603 0-1.13.33-1.753.595-2.849-1.04-1.783-2.702-2.108-3.323-4.04-.388-1.215-.09-2.135-.594-3.324-.564-1.338-2.138-1.63-2.138-3.087 0-1.01 1.189-1.07 1.902-1.783-.773-.77-2.021-.92-2.021-2.015 0-2.703 1.098-4.512 3.206-6.175-.83-.923-1.308-1.694-1.308-2.942v-1.72c0-1.098.06-1.872-.47-2.822-.21.06-.237.359-.479.359-.236 0-.352-.12-.59-.12-.12-1.039-.475-1.573-.475-2.612 0-3.354 2.373-4.957 2.373-8.31 0-1.312-1.573-1.338-2.493-2.258-2.31-2.314-4.388-3.86-4.388-7.124 0-2.378 1.301-3.563 1.301-5.937 0-.923-1.274-.833-2.13-1.072-1.514-.415-2.377-.83-3.798-1.54-1.069-.535-1.304-1.455-1.666-2.613-.531-1.723-2.012-2.198-2.49-3.921-.415-1.424.359-2.73-.713-3.798-1.57-1.574-3.618-.86-5.222-2.377-1.48-1.391-1.211-3.174-2.725-4.509l-.478.116c.153-2.078-.295-3.323-1.065-5.222-1.129-2.257-2.788-3.028-5.102-4.04-.713-.296-.893-1.066-1.663-1.066-.68 0-.946.62-1.308 1.185-1.51-.624-2.93-.504-3.793-1.899-.565-.92-.68-1.75-1.544-2.374-1.215-.893-2.46-.863-3.322-2.138-1.66-2.433-1.806-4.956-4.508-6.055-.385.8-.299 1.573-1.069 2.018-1.274-1.278-2.612-1.338-3.794-2.613-.627-.68-1.663-.83-1.663-1.779 0-.923 1.215-1.069 2.131-1.069.299 0 .448.236.747.236.176 0 .266-.12.445-.12v-.98c0-3.502-.15-5.55-.714-8.993-.179-1.218-.946-1.843-.946-3.088 0-1.039.946-1.454.946-2.493 0-1.394-.89-2.048-1.424-3.327-.77-1.779-.74-3.084-2.015-4.508-.803-.89-.325-2.732-1.543-2.732-.21 0-.266.239-.478.239v.916c0 1.335.777 2.052.777 3.386v2.939c-1.988-.296-2.822-1.425-4.332-2.733-2.257-1.959-3.68-3.028-5.699-5.222-1.095-1.189-.74-3.446-2.373-3.446-1.185 0-1.54 1.427-1.54 2.613 0 .594.325.863.71 1.308l-.471.95c2.592 10.62.723 1.304-4.392 1.304-.415 0-.538.594-.952.594-1.006 0-1.126-1.155-1.78-1.899-.355-.415-1.065-.475-1.065-1.069s.475-.833.475-1.424c0-5.05-3.914-7.304-3.914-12.35 0-1.04.468-1.574.468-2.613 0-.89-.886-1.07-1.301-1.9-.269.09-.415.24-.714.24-1.895 0-1.63-2.613-1.779-4.515-.06-.95 0-2.255-.949-2.255-.359 0-.594.176-.95.236-.03-.385-.119-.594-.119-.98 0-.833.594-1.274.594-2.108 0-.979-1.185-1.009-1.782-1.779-.471-.624-.501-1.544-1.301-1.544-.213 0-.299.206-.478.24l-.531-.12c.03-.684 0-1.1 0-1.783-3.293.325-3.977-3.207-6.347-5.581-.388-.98-1.188-1.424-1.188-2.493 0-.624.71-.8.71-1.425 0-.385-.474-.534-.474-.92 0-.208.122-.298.122-.504.561.12.83.591 1.418.591.952 0 1.902-.59 1.902-1.54 0-1.368-1.693-1.308-2.848-2.022-.505-.296-.326-.946-.714-1.424-.471-.595-1.301-.326-1.898-.83-.767-.654-.86-1.455-1.302-2.374-.657.265-1.039.74-1.191 1.424-2.46-.8-3.41-2.198-5.338-3.918-1.125-1.012-1.453-2.493-2.967-2.493-.8 0-.74 1.424-1.54 1.424-2.403 0-3.326-2.822-3.326-5.225l-1.185-.12c-.68 1.219-.624 2.108-1.308 3.327-1.898-1.723-4.03-2.732-4.03-5.315 0-.595.12-.89.12-1.484 0-1.72-1.132-2.464-1.902-4.008-1.424.356-2.194.95-3.678.95-2.549 0-4.773-1.01-5.58-3.443l.479-.95-.12-.477c-1.158.833-1.776 1.663-1.898 3.09-1.87-.624-2.284-2.111-4.033-2.968-3.738-1.872-6.055-2.792-9.138-5.584-.89-1.574-1.78-2.463-1.78-4.273 0-1.872.83-2.878.83-4.75 0-.625-.624-.74-1.068-1.19-1.305-1.304-1.929-2.107-3.323-3.322-1.779-1.544-2.104-3.118-2.493-5.462l2.111-4.986c0-2.972.027-4.662.027-7.633 0-.59-.325-.86-.594-1.394-.591-3.679-1.218-5.817-2.493-9.26-.355-1.009-1.065-1.517-1.065-2.616 0-.65.205-1.039.355-1.66l-.95.24c-3.292-2.378-4.358-4.722-6.764-7.959-1.42-1.929-3.559-2.669-3.559-5.106 0-1.129 1.305-1.484 1.305-2.61 0-.597-.471-.833-.471-1.427 0-1.514.826-2.287.826-3.801 0-1.51-2.254-1.69-2.254-3.207 0-.827.359-1.305.359-2.135 0-3.088-3.203-4.157-3.203-7.244 0-1.514.65-2.434 1.779-3.443-1.069-1.07-1.544-2.049-1.544-3.562 0-1.664 1.66-2.255 1.66-3.918 0-1.248-1.66-1.099-2.609-1.902-1.723-1.455-3.621-1.186-5.102-2.846-.624-.713-.448-1.514-.83-2.377-.803-1.693-2.817-.95-4.51-1.783-1.929-.949-1.54-3.057-2.493-4.986-.203-.415-.95-.355-.95-.83 0-.299.24-.415.24-.714 0-1.01-1.424-.98-1.783-1.899-1.72.415-2.015 2.493-3.794 2.493-.684 0-.979-.594-1.663-.594-3.382 0-4.003 3.473-6.642 5.581-2.11-2.347-3.92-3.413-5.101-6.291-1.162-2.792-.628-4.811-1.783-7.603-.922-1.574-2.137-2.434-2.137-4.273 0-2.018 1.782-2.852 1.782-4.867 0-4.01-2.493-5.97-2.493-9.977 0-1.633.356-2.523.356-4.156l-.946-.116c-.595.59-1.07.95-1.902.95-.415 0-.591-.535-.591-.95 0-2.138 1.779-3.088 1.779-5.226 0-1.308-1.869-.923-2.729-1.899-.74-.863-.298-1.902-.952-2.852-.68-1.01-1.869-.504-2.845-1.188-1.098-.74-.95-1.986-.95-3.324 0-1.809 1.78-2.463 1.78-4.276 0-.83-.12-1.899-.946-1.899-1.042 0-1.577.594-2.612.594-1.663 0-2.968-1.424-2.968-3.087 0-1.126.595-1.723.595-2.849 0-3.177-.09-5.106-1.189-8.077-.534-1.424-1.54-2.135-1.54-3.679 0-1.039.471-1.573.471-2.612 0-.92-1.244-.92-2.13-1.07-.538-.09-.512-.949-1.073-.949-.949 0-1.453.355-2.4.355-.182 0-.265-.12-.448-.12.21-1.69 1.07-2.549 1.07-4.246 0-.235-.12-.381-.12-.62-.74.09-1.159-.03-1.899-.03-.979 0-.654 1.424-1.069 2.287-.83 1.69-1.928 2.968-3.823 2.968-.624 0-1.013-.09-1.634-.033 0 .804.064 1.248 0 2.052 0 1.484-.119 2.224-.119 3.708v2.792c0 2.879-1.895 4.276-1.895 7.155 0 .504.235.89.59 1.188-1.304 1.63-2.964 2.4-2.964 4.512 0 1.159 2.131.98 2.131 2.135 0 .329-.083.508-.116.833h-1.895l-.12.714c.12.8.352 1.215.352 2.015 0 .79-.269.31-.352-.12-.388-1.214-.717-1.895-1.424-2.967-1.188.893-2.257 1.603-2.257 3.087 0 .565.146.923.359 1.428l-.95-.24c-.833.655-.952 1.545-.952 2.614 0 6.616 10.227 3.193 3.561 6.53 1.405.787 5.132 2.029 1.305 1.723 1.374 6.258.368 1.537-2.134-.415-.83 1.245-.83 2.374-2.018 3.323-1.189.95-2.845 1.1-2.845 2.613 0 1.75.647 2.673 1.301 4.276.62 1.54.773 3.144 2.373 3.679-.564 1.129-1.185 1.633-1.185 2.852l-.478-.12c-.68-.684-.68-1.573-1.54-1.899-.949 1.424-.146 2.908-1.185 4.273-1.158 1.514-1.069 2.849-1.307 4.75-.147 1.246-.83 1.84-.83 3.088 0 2.019 3.2 2.049 3.2 4.067v2.314c0 2.524-1.776 3.682-1.776 6.205 0 4.811.65 7.839 3.322 11.876-.179 1.129 0 1.989-.713 2.849-.322.415-.946.504-.946 1.069 0 1.338 2.496 1.188 0 1.188-1.514 1.01-1.159 2.67-1.783 4.392-1.128 3.058-2.134 4.811-2.134 8.075 0 1.215-.359 1.869-.359 3.087 0 .83.359 1.308.359 2.138 0 4.808-3.147 7.151-3.147 11.965v1.57c-.176 0-.235-.235-.415-.235-.534 0-.71.654-.71 1.185 0 .565.239.893.594 1.308-.92 0-1.454-.06-2.373 0 0 .684.03 1.1 0 1.78-.21-.09-.12-.472-.355-.472-.624 0-.565.887-.833 1.421-.535 1.073-1.04 1.813-2.138 2.258.511 3.087-.501 4.927-1.78 7.719l-.47-.475c-1.01 2.045-2.583 2.938-2.732 5.222-.355-.086-.591-.235-.95-.235-.265 0-.385.176-.62.235v1.903c-.299-.359-.329-.953-.804-.953-4.42 0-6.286 3.801-10.707 3.801h-2.314c-2.788 0-3.648-3.207-6.436-3.207-2.95 0-.64.684-4.036-2.018-1.006-.8-1.245-1.9-2.493-2.255-2.134-.624-4.093.296-5.693-1.304-2.137-2.142-.949-4.665-2.489-7.248-1.278-2.164-3.326-2.284-5.7-2.965-4.835-1.397-7.504-2.407-12.34-3.801-2.46-.707-4.15-1.7-5.73-3.097-1.002-.89-1.96-1.946-3.053-3.198-.83-.95-1.364-1.454-2.367-2.134-.328-.21-.952-.18-.952-.595 0-.209.239-.269.239-.474 0-.24-.12-.356-.12-.595-3.116 0-4.66-1.573-7.239-3.326-1.36-.92-2.967-.475-3.797-1.9-1.189-1.988-2.58-3.323-4.893-3.323-.448 0-.713.087-1.158.117-.448.209-.594.358-1.069.358-.83 0-1.308-.475-2.138-.475-.56 0-.77.415-1.304.595-.71-1.1-.976-2.198-2.254-2.494 1.879-3.761-3.29-1.182-6.761-5.225-.92-1.07-.594-2.318-1.544-3.327-2.46-2.61-4.982-2.729-8.069-4.512-1.304-.74-1.57-2.373-3.083-2.373-3.426 0-.458-.864-5.102-3.921-.803-.535-2.078-.415-2.078-1.395v-2.878c.74-1.219 1.69-1.514 2.55-2.613 2.107-2.64 2.552-4.601 4.032-7.6 1.042-2.108 3.356-2.078 4.392-4.156 1.6-3.227 3.876-8.31 1.307-8.31-1.722 0-2.492-1.962-2.492-3.682 0-1.484.235-2.377.594-3.801l.71.355.475-.116c-.385-.803-1.185-1.043-1.185-1.9 0-1.632 1.454-2.85 3.083-2.85.266 0 .296.298.475.474.982-.71 1.129-1.514 1.663-2.613.86.86.564 1.813.833 2.971.797-.624 2.131-.624 2.131-1.663 0-.21-.236-.269-.236-.478l.117-.471c1.072.086 1.812-.774 2.14-1.78l.472.116c.474 1.425.15 2.523 1.069 3.682 1.068-1.069.979-2.287 2.373-2.968-.594-.923-1.099-1.428-2.018-2.022.949-.71 1.779-.654 2.967-.83-.594-1.484-1.663-2.078-2.254-3.562.74-.355 1.129-.71 1.78-1.189l.949.24c1.872-2.079 2.403-3.858 2.728-6.65h.92c.415 0 .564.355.979.355 1.663 0 1.779-2.255 1.779-3.918 0-1.514-1.215-2.848-2.728-2.848-.206 0-.266.235-.478.235.09.654.358 1.01.358 1.66 0 .478-.12 1.073-.594 1.073-1.01 0-1.155-1.13-2.015-1.664-2.048-1.278-3.027-2.908-3.203-5.345-1.424.359-1.899 1.517-3.323 1.903-1.394.385-2.346.89-3.086 2.138 1.57.504 3.92 0 3.92 1.663 0 1.036-.893 1.42-1.308 2.374-.628 1.484-1.248 2.968-2.848 2.968-.296 0-.448-.15-.744-.15h-3.767c-.056-.474-.12-.713-.12-1.188 0-1.096 1.07-1.484 1.07-2.583 0-1.215-1.484-1.215-2.61-1.663-.444-.176-.355-.95-.833-.95-1.33 0-1.424 2.022-2.758 2.022-.355 0-.561-.09-.916-.12v-.979c0-.744.385-1.189.95-1.633 1.659-1.309 1.659-2.939 2.608-4.868l-.478-.119a58.893 58.893 0 0 1-4.743 1.78c.295.298.59.418.946.594-.68.388-1.096.83-1.895.83-.385 0-.565-.356-.95-.356-1.158 0-1.098 2.019-2.254 2.019-.507 0-.773-.239-1.191-.471-.531 1.065-1.537 1.245-1.895 2.373.564-.179.979-.209 1.543 0-.68.681-.95 1.54-1.895 1.54-1.222 0-1.637-1.188-2.852-1.188-.62 0-.919.359-1.543.359-.833 0-.77-1.189-1.42-1.663-2.258-1.69-4.126-2.255-5.7-4.632-1.6.568-1.895 2.377-3.588 2.377H464.1c-1.929 0-2.732-1.663-4.657-1.663-.92 0-.983 1.159-1.305 2.019-.209-.09-.388-.18-.594-.24 0-1.955-.893-4.153-2.848-4.153-.83 0-1.069.95-1.899.95-1.337 0-2.728-.8-2.728-2.138 0-.89 1.185-1.126 1.185-2.019 0-.206-.206-.295-.236-.475-1.364.21-2.492.12-3.326 1.189-.411.534-.62 1.185-1.3 1.185-1.813 0-2.938-.325-4.512-1.185-.8-.445-1.095-1.308-2.018-1.308-.83 0-1.304.239-2.137.239-4.358 0-3.346-8.074-7.71-8.074-1.01 0-.565 1.603-1.305 2.254-.83.744-1.723.594-2.848.594-1.01 0-.475-1.723-1.305-2.254-.803-.508-1.069-1.278-1.069-2.228v-2.852c0-.95.09-1.72-.59-2.4-.415.531-1.189.62-1.189 1.302 0 1.128.714 1.723.714 2.851 0 .206-.236.27-.236.475-.86-.475-1.693-.325-2.376-1.066-.594-.657-.415-1.902-1.305-1.902-.687 0-.979.714-1.663.714-.564 0-.8-.448-1.185-.833-.773.683-1.188 1.424-1.188 2.493 0 .504.236.803.236 1.308 0 .206-.206.299-.236.475-1.338-1.338-1.185-3.802-3.084-3.802-.713 0-.713 1.189-1.424 1.189-.474 0-.743-.355-1.218-.355h-.92c-.029.445-.115.713-.115 1.155 0 1.189 1.241 1.428 2.134 2.168 1.573 1.338 2.55 2.437 2.848 4.515 2.522-1.248 3.854-2.616 6.645-2.616 2.104 0 4.627.624 4.627 2.732 0 .98-.833 1.398-.833 2.377 0 .206.209.266.242.475 1.185-.388 1.603-1.427 2.848-1.427.236 0 .266.298.475.358-.953.95-1.902 1.544-1.902 2.879v3.562c0 1.364.269 2.254-.116 3.532-.389 1.275-1.959 1.04-3.32 1.189-1.905.236-2.907.74-4.746 1.188-2.407.591-3.24 2.73-5.7 2.73-1.397 0-1.928-1.425-3.325-1.425-1.182 0-1.776.71-2.96.71-.685 0-1.013-.474-1.694-.474h-2.313c-2.466 0-5.344-.74-5.49-3.204-.98.86-.591 2.135-1.544 3.084-.654.658-1.45.415-2.366.595-1.517.298-2.347.743-3.92.95v.919c0 1.723 1.779 2.347 1.779 4.07 0 .296-.236.475-.356.71-.355-.175-.653-.295-.949-.594l-.474.359c.03.355.06.59.119.95l-.475-.12c-.478-.475-.77-.804-1.307-1.189l-.233.475-.474-.116c-.624-1.873-1.902-2.908-3.801-3.327-.09 1.248-.83 1.843-.83 3.088 0 .534.83.534.83 1.069 0 1.544 1.988 1.394 3.084 2.493-.117.21-.236.355-.352.594-.833 0-1.338.12-2.168.12-1.902 0-2.463-2.138-4.361-2.138-.71 0-.893.77-1.424 1.188 0 2.195-.299 5.103-2.493 5.103-.62 0-.95-.475-1.57-.475-.18 0-.265.12-.445.12 0 1.099-.358 1.753-.358 2.848 0 2.587 3.2 3.237 3.2 5.82 0 .565-.349.864-.349 1.425 0 .743.445 1.099.71 1.782l-.474-.12c-.624-.623-.92-1.098-1.305-1.898-2.49.83-3.087 3.562-5.696 3.562-.922 0-1.424-.534-2.137-1.069-.767.594-1.069 1.365-1.069 2.374 0 1.81.448 2.941-.116 4.631-.359 1.13-1.308 1.634-1.308 2.849 0 2.702-3.263 2.882-4.388 5.345l-.95-.475c-1.36.565-2.256 1.604-2.256 3.088 0 2.078.776 3.589 2.492 4.75 1.189.8 2.672.356 3.326 1.66.65-.205.976-.474 1.66-.474.295 0 .445.15.71.239-.624 1.245-2.134 1.454-2.134 2.849 0 .89.06 1.364 0 2.254.83-.087 1.274 0 2.104 0 1.275 0 1.959-.591 3.237-.591.418 0 .53.415.83.714-1.159.086-1.577 1.304-2.729 1.304-.295 0-.415-.239-.714-.239-.415 0-.564.415-.979.415h-3.173v.983c0 .8.684 1.159.83 1.929.265 1.335.239 2.377 1.188 3.327.554.554 1.623.395 1.65 1.162-.581-.17-2.53-.784-4.143-1.996-.949-.714-.89-1.932-2.015-2.377-1.397-.534-2.26-1.125-3.09-2.374l-.946.24c-.358-.12-.564-.36-.95-.36-.238 0-.387.18-.597.24-.03.534-.112.86-.112 1.394 0 1.574.942 2.318 1.3 3.832-2.704 0-2.489 5.6-2.489.09 0-2.547-1.676-4.058-3.913-5.034-1.417-.62-3.057-1.03-4.634-1.351-1.72-.355-2.49-1.54-4.268-1.54-.976 0-1.514.411-2.493.47.09 1.19.415 2.229 1.065 3.208l-.116.475a9.487 9.487 0 0 1-1.543-.595l-.472.12c.15.355.263.594.472.95l-.116.474c-.834-.265-1.278-.68-1.902-1.305l-.475.356c.063.83.475 1.304.475 2.138 0 .265-.266.325-.475.474l-1.304-1.902c-.797.893-1.421 1.577-1.421 2.792 0 1.992 1.835 6.584-.83 1.84-.61 1.308-1.188 3.263-1.188 4.216 0 .544.57 1.78-.06.773l-1.112-2.168c-1.56-.215-3.054-1.158-.372-1.158 1.01 0 1.899-.774 1.899-1.783 0-1.69-.83-2.58-.83-4.273 0-1.218-.299-2.018.236-3.087.448-.89 1.543-1.13 1.543-2.138 0-2.255-1.928-3.264-3.916-4.273-1.66-.863-2.434-1.813-3.32-3.443-.328-.624-1.424-.568-1.424-1.308 0-.296.236-.415.236-.71 0-1.694-1.753-2.139-3.206-2.969-.976-.567-1.331-1.278-2.367-1.782-.896-.445-2.257-.296-2.257-1.309 0-1.098.03-2.609-1.069-2.609-1.308 0-2.018.355-3.323.355-2.672 0-4.152-2.198-4.985-4.75-.856.623-1.361 1.128-2.37 1.543l-2.018-.71-.475.116c1.185 1.633 1.69 2.908 3.439 3.92l-.236.386c-.92-.09-1.454.03-2.373-.03-.176 2.198-1.158 3.446-2.967 4.631-.74.475-.77 1.54-1.66 1.54-1.988 0-2.015-2.758-2.015-4.747 0-2.918.349-.717-1.782.475-.774.415-2.018.299-2.018 1.189 0 .83 1.128.89 1.424 1.66-1.159.388-1.63 1.308-2.848 1.308-3.034 0-.29-3.759-3.794.239l.232.95c-.564.979-1.54 1.364-1.54 2.492 0 .71.475 1.066.475 1.78 0 1.069-1.544.863-2.613.95.12.863.359 1.308.598 2.138l-.478-.236c-.475-.624-1.099-.774-1.544-1.428-.47-.71-.295-2.015-1.185-2.015-3.402 0-2.638 5.674-2.638-3.207 0-.21.268-.269.268-.475 0-.89-1.072-1.01-1.749-1.544v4.718c0 1.042-.152 1.604-.269 2.643-1.603 0-3 .15-3.797 1.544-.15-.21-.269-.356-.478-.475v-.595l-.95.12c-.351-.12-.563-.355-.945-.355-.24 0-.269.295-.475.355.236 1.544-2.018 1.902-2.018 3.443 0 1.427 1.424 2.377 2.851 2.377.024.176.236.266.236.475 0 .83-.534 1.188-.95 1.899l.117.474c.209.03.269.236.475.236.414 0 .624-.385.952-.59.322.295.382.83.83.83.355 0 .62.119.946.238-.445.206-.83.475-.83.95 0 1.009 1.036 1.248 1.78 1.899-.98.325-1.574.714-2.61.714-1.513 0-2.167-.98-3.558-1.544-.093.594-.209.89-.475 1.424-2.771-1.384-2.552-5.966-2.967-.95-1.099.12-1.69.176-2.788 0 .06.562.06.86 0 1.425l.89.116c.916-.206 1.423-.74 2.373-.591-.863.86-1.514 1.215-2.61 1.663.353.89 1.153 1.305 2.135 1.305.677 0 1.01-.564 1.66-.71-.206.89-.356 1.45-.356 2.373 0 1.398 4.223 5.033 3.084 4.748-1.955-.734-1.54-2.135-2.967-2.135-.561 0-.744.505-1.185.83-.86-.504-1.69-.534-2.135-1.424-.385-.803.415-1.723-.235-2.374-.654-.654-1.544.09-2.374-.242-.358-.116-.448-.591-.833-.591-1.304 0-1.576 1.364-2.609 2.138l.475.95c-.59.74-1.188 1.188-2.138 1.188-.624 0-.949-.475-1.424-.833-.47.98-1.895 1.039-1.895 2.138 0 .415.262.594.468.95-1.185.773-1.301 2.018-1.301 3.445 0 .681.505 1.305 1.188 1.305.206 0 .266-.236.475-.236h.767c-.027.74-.057 1.156 0 1.9 2.702-1.19 3.206-3.208 5.344-5.107v2.464c0 1.693-2.792 1.693-2.792 3.383 0 .445.09.714.12 1.158-.535.18-1.07.386-1.07.95 0 .774.592 1.129.592 1.899 0 .8-1.119.833-1.42 1.544-.8-.12-1.216-.445-1.903-.83-.235 1.514-.265 2.433-.942 3.801.527.206.83.475 1.42.475.564 0 .86-.24 1.424-.24.74 0 8.322 2.312 6.645 2.733-2.728-.684-4.361-.03-7.12-.475-1.304-.209-1.868-1.308-3.203-1.308-.209 0-.268.21-.474.24.235 1.035.86 1.779 1.895 2.018-.03.59-.202.92-.471 1.424-.684-.594-1.099-1.308-2.018-1.308-.389 0-.565.359-.946.359-1.753 0-1.813-2.049-2.852-3.443-.89-1.219-2.257-1.189-3.797-1.189-.209 0-.265.206-.475.24.33.8 1.192 1.035 1.192 1.925 0 .18-.123.269-.123.448h-1.039c-.594 0-.86.594-1.45.594-.624 0-.807-.624-1.188-1.069-1.1-1.218-2.377-1.872-2.377-3.535 0-.382.093-.591.123-.98l-.956.24c-.173-.03-.262-.24-.472-.24-.232 0-.355.12-.59.12.09.743-.356 1.158-.356 1.899 0 .209.322.239.356.415h1.48v3.03c-.56.356-1.36.386-1.36 1.07 0 .59.47.83.47 1.424 0 1.156-1.656 1.335-1.656 2.494 0 1.334 2.194.594 3.084 1.543 1.185 1.275.74 2.703 1.3 4.396.924-.21 1.548-.063 2.377-.478l.475.12c-.684.773-1.304 1.068-2.257 1.543 1.318 2.009 2.689 2.942-.236 1.07.8 2.137 1.335 3.352 2.493 5.344l-.12.475c-1.513-1.129-2.582-1.517-4.032-2.732-.98-.834-.594-2.733-1.899-2.733-.803 0-.358 1.219-.358 2.019 0 1.368 1.039 1.899 1.663 3.088-.445.385-.834.564-1.424.594 0 1.275-1.305 1.69-1.305 2.968 0 .475.296.74.296 1.218 0 1.498-.89 8.018-.89 3.294 0-.744.355-1.159.355-1.9 0-1.842-1.72-2.373-3.08-3.562-1.932-1.693-1.248-3.917-2.496-6.175-1.04-1.872-3.442-2.138-3.442-4.273 0-.654.355-.982.355-1.633v-.983c-.594-.086-.89-.206-1.424-.474l.239-.95c-1.188-1.484-3.32-1.66-3.32-3.562 0-1.215.827-1.753 1.186-2.909-.747 0-1.159-.03-1.899 0-.445 1.634-1.633 2.524-3.323 2.792.3.95 0 1.604 0 2.61 0 .98.8 1.487 1.663 1.902-.093.206-.182.385-.239.591-1.57 0-2.462.598-4.032.598-.777 0-1.04-.714-1.756-.953-.053 1.663.242 2.613 0 4.276h-.498c-2.493.621-3.416 2.198-4.87 4.276-1.364 1.989-2.844 3.144-2.844 5.581 0 3.055.71 4.778.95 7.835.115 1.664-.628 3.088.47 4.276 1.04 1.126 3.681.206 3.681 1.78 0 3.592-3.027 5.136-6.17 6.886-2.403 1.337-3.472 2.881-6.174 3.446-1.035.209-.856 1.663-1.779 2.138.299.74.953 1.065.953 1.899 0 1.158-1.013 2.018-2.168 2.018-.358 0-.594.06-.92.116.117.479.24.714.24 1.192 0 4.243-2.347 6.351-4.866 9.735-2.672 3.592-4.216 5.876-7.953 8.432-3.708 2.523-6.317 3.177-10.44 4.867-3.587 1.484-5.606 3.207-9.519 3.207h-2.791c-4.272 0-6.198 3.324-10.473 3.324-2.934 0-4.212-2.374-7.15-2.374-.295 0-.444.09-.74.12.03.56.06.86 0 1.424-.627-.15-.949-.475-1.6-.475-2.997 0-3.292 3.383-5.582 5.342-2.34 1.992-4.415 2.493-7.499 2.493h-1.868c-3.326.714-5.61.744-8.544 2.377-2.018 1.126-2.433 2.789-4.272 4.153-3.117 2.318-5.7 2.972-9.616 2.972-2.34 0-3.113-2.613-5.457-2.613-2.582 0-3.707 2.138-6.287 2.138-.567 0-.922-.12-1.423-.358.046-.203 1.384-4.904.59-3.324-2.934 3.918-5.99 4.897-10.439 7.125l-.949-.475c-.624 1.066-.388 2.225-1.424 2.849-2.227 1.364-4.391.95-6.167 2.848-2.765 2.912-3.95 4.93-7.007 7.603-4.418 3.858-7.827 4.867-13.526 6.295-1.573.381-2.078 1.895-3.708 1.895-.53 0-1.098.12-1.63.12-.979 1.693-.803 3.058-1.782 4.75-1.065 1.87-2.343 2.643-2.845 4.748-.597 2.464-.205 4.575-2.257 6.06-.441-.39-.773-.685-1.304-.95-.624 1.275-1.573 1.63-2.848 2.254-.415-.654-.71-1.099-.71-1.902 0-1.126.534-1.72.71-2.849l-1.66-4.273c.146-.654.296-1.039.352-1.723l-.707-3.144c.385-.983 1.42-1.308 1.42-2.377 0-.388-.205-.83-.59-.83-2.108 0-2.669 2.288-3.323 4.273-.683 2.111-1.427 3.207-2.376 5.229-.74 1.6-.677 2.729-1.298 4.392-.747 2.019-1.905 3.055-1.905 5.222 0 3.921 3.322 5.581 3.322 9.499 0 1.099-1.185 1.457-1.185 2.556 0 1.425.352 2.195.352 3.62 0 3.71-2.4 5.284-4.152 8.548-2.964 5.495-4.62 9.176-4.62 15.438 0 6.53 6.877 9.143 5.811 15.673 0 1.395.12 2.583 1.302 3.324 1.038.624 2.194.743 2.608 1.902 1.398 3.742 1.428 6.321 3.804 9.502 1.331 1.81 1.896 3.084 3.442 4.747.973 1.066 2.135 1.634 2.135 3.088 0 .295-.362.415-.362.714 0 .475.242.71.242 1.185 0 .475-.806.269-.952.714-.266.86.176 1.484 0 2.374-.173.803-.95 1.069-.95 1.902 0 1.039.71 1.57.71 2.61 0 1.782-1.178 3.442-2.96 3.442-1.574 0-1.454-2.048-2.138-3.443-.743-1.484-1.869-1.988-2.376-3.562l-.468-.12c-1.129 1.126-2.437 1.737-4.395-.355 0-2.254 1.424-3.323 1.424-5.58 0-1.574-1.275-2.139-2.134-3.443-1.126-1.694-1.633-2.819-3.087-4.273l-.89.116c-.06.744-.086 1.159-.086 1.899v1.454c0 1.813 1.245 2.586 1.925 4.246.98 2.378.92 4.038 2.377 6.176 1.151 1.723 2.755 1.899 4.391 3.203 1.48 1.189 1.182 2.852 1.182 4.751 0 1.07-.74 1.574-1.421 2.374-.893 1.04-1.248 2.377-2.609 2.377-.684 0-.83-.714-1.427-1.069-1.042-.624-2.493-.684-2.493-1.899 0-1.04.239-1.603.475-2.613-.83-.415-1.72-.624-2.135-1.424.233-.774.356-1.308.356-2.138 0-1.04-.356-1.78-1.185-2.374l-.71.12v1.065l.47 1.903v1.899l-.47.235c-.419-.86-.598-1.484-1.309-2.018l-.474-.116c.415 1.69 1.809 1.988 2.612 3.443 1.66 2.968 3.2 4.302 5.46 6.888 2.131 2.46 2.666 4.363 4.388 7.125 2.994 4.807 5.132 7.746 5.577 13.416.355.06.59.09.952.12l.113.471c-1.48 1.487-1.188 3.147-1.188 5.226 0 2.613-.236 4.336.956 6.65.474.923 1.537.713 2.247 1.427.926.92 1.009 1.81 1.782 2.845 1.959 2.643 3.592 3.891 4.392 7.128 1.248 2.995.654 5.226 2.254 8.075 1.035 1.869 2.731 1.988 4.036 3.681 2.904 3.772 3.083 7.095 3.083 11.876 0 1.75-.65 2.729-.65 4.482v3.858c0 1.278-.299 2.018-.299 3.296 0 1.395.92 1.99 1.304 3.324.86 3.028.565 4.956 1.07 8.077.77 4.661 2.4 7.002 4.626 11.162 2.994 5.58 4.362 8.93 6.765 14.844 1.185 2.904 3.382 4.18 3.382 7.33v3.383c0 .445-.179.71-.179 1.159 0 1.962.83 3.028.83 4.986 0 1.305-.475 2.019-.946 3.21l.471 1.9c-.355 1.45-.056 2.46-.71 3.798-.269.531-.976.411-1.424.83-.92.86-.893 1.81-1.188 3.087l1.782 11.341c0 3.679-1.099 5.787-2.732 9.084-1.54 3.084-3.528 5.465-7 5.465-1.988 0-2.52-1.843-4.215-2.972v2.284c0 .83-.707 1.159-.707 1.989v6.178c0 2.258.59 3.503 1.125 5.7.448 1.87.538 3.324 2.018 4.51.445-.768.59-1.279 1.065-2.016 4.75 1.956 7.628 3.23 11.276 6.886 2.078 2.078 4.122 2.669 5.34 5.342.565 1.248 0 2.526 1.066 3.323 1.334.98 2.672.182 4.272.714 3.857 1.278 5.961 2.227 9.493 4.272.236-.74.445-1.215.83-1.899l4.391 1.9c.77-.502.98-1.216 1.428-2.016 1.125.834 1.925 1.424 3.345 1.424 1.278 0 1.992.12 3.266.12.887 0 1.185-.953 2.078-.953.83 0 1.275.123 2.105.033-.06.442-.24.71-.24 1.156 0 .504.744.418 1.19.594.919.355 1.363 1.069 2.369 1.069 1.072 0 1.072-1.78 2.138-1.78 1.925 0 2.579 1.72 4.51 2.016 0-2.942 3.233-3.473 5.816-4.867 1.51-.804 2.549-.98 4.03-1.9 1.095-.68.922-2.048 2.02-2.732 1.096-.68 1.541-1.484 2.73-2.018 1.244-.565 2.429-.18 3.319-1.185.624-.714.09-1.604.594-2.378 1.367-2.078 3.591-2.134 6.114-2.134 1.749 0 2.635.654 4.328 1.065.385-.95 1.394-1.095 2.373-1.424 3.622-7.274 7.625-13.416 15.667-13.416.65 0 1.006.355 1.66.355.83 0 1.301-.474 2.13-.474 1.607 0 2.437.95 4.037.95 1.215 0 1.069-1.843 2.257-2.139 2.52-.624 3.973-.71 6.556-.71h4.328c2.878 0 4.391-1.192 7.27-1.192 3.59 0 5.426 2.022 9.018 2.022 1.274 0 1.809-1.07 3.083-1.07 1.364 0 2.314.711 2.968 1.903.388.71.239 1.899 1.068 1.899 1.01 0 1.75.295 2.61-.236 1.065-.657.982-2.377 2.256-2.377 1.365 0 1.962 1.07 3.323 1.07.65 0 .98-.509 1.42-.95h2.344c2.612 0 4.066-.478 6.675-.478 1.988 0 2.284 2.851 4.272 2.851 2.639 0 3.943-1.34 6.29-2.493 1.188-.594 2.018-.627 3.323-.95.8-.179 1.895-.238 1.895-1.068 0-.684-.349-1.04-.349-1.724 0-2.851 3.436-2.941 5.102-5.285 1.567-2.224 1.301-4.093 1.895-6.77.68-3.027 1.81-5.016 4.505-6.53 2.17-1.215 3.233-2.848 5.729-2.848h2.31c2.522 0 3.595-1.63 5.729-2.968 4.093-2.553 6.585-4.306 11.272-5.462 6.32-.508 7.714-6.885 13.885-8.429l.949.236c.83-.624 1.39-1.066 2.433-1.066 3.704 0 5.546 2.25 9.257 2.25 7.057 0 11.034-.74 17.97-2.37 3.177-.747 4.575-2.32 7.715-3.087 5.486-1.368 8.338-2.616 13.526-4.874 4.604-2.008 6.632-5.448 11.501-5.574.09-.003.186-.007.275-.007h2.463l13.407-2.493h9.699c2.051 0 3.21-.471 5.254-.471 2.463 0 3.827.351 6.29.351 2.49 0 4.033-.411 6.17-1.66 1.365-.77 2.075-1.899 3.675-1.899 2.556 0 3.738 1.574 5.935 2.849 3.176 1.843 5.37 2.437 8.308 4.631 2.669 2.942 6.914 3.178 7.236 7.125 1.633-.385 2.728-.269 4.272-.95 1.245-.564 1.573-2.018 2.964-2.018 3.947 0 5.935 1.989 9.377 3.92.83.442 1.543.353 2.373.834 2.078 1.245 3.173 2.606 5.58 2.606 1.63 0 2.015-1.603 3.439-2.37.298.501.71.83 1.304.83.773 0 .654-1.424 1.424-1.424 1.39 0 1.6 1.57 2.373 2.729 1.78 2.699 4.451 3.353 5.221 6.527l-.478.123c-.5-.27-.856-.475-1.417-.591.116.355.352.564.352.95 0 .62-.71.796-.71 1.42 0 .24.295.269.358.478 2.397-.594 3.35-2.493 5.812-2.493 2.815 0 3.794 3.353 3.794 6.172 0 1.487-1.152 2.048-1.895 3.323-.18-.707-.418-1.185-1.069-1.54-.68 1.215-.564 2.403-1.78 3.084.92.448 2.37.269 2.37 1.308 0 .475-.47.684-.47 1.155v.98c2.549 0 3.053 3.03 5.576 3.446 2.493.415 6.287-.976 6.287 1.543 0 .3-.236.415-.236.71 0 1.399 1.898 1.428 2.373 2.737.98 2.636.292 4.448 1.188 7.124.531 1.664 1.746 2.165 2.61 3.675.889 1.577 2.017 2.142 3.558 3.088 1.218.747 1.188 1.962 1.66 3.33.414 1.245 1.19 1.866 1.19 3.207 0 .382-.361.561-.361.95 0 1.158 1.188 1.45 1.663 2.493.624 1.394.475 2.493.594 4.037l2.018 5.342v1.424h-.684c-.763 0-1.566-.395-2.12-.754.594.515 1.593 1.445 3.16 3.008 1.6 1.604 1.749 3.15 2.608 5.226l.478.239c.057-1.01.057-2.377 1.07-2.377 2.223 0 3.318 1.278 5.097 2.613.12-1.51.356-2.4.478-3.918-.803.594-1.487.71-2.492.833-.093-.325-.359-.478-.359-.833 0-.86 1.192-1.04 1.192-1.902 0-.236-.359-.236-.359-.472 0-2.048.77-3.562 2.493-4.631 1.185-.74 3.087-.475 3.087-1.9 0-.593-.481-.832-.481-1.427 0-2.045 2.585-2.134 3.565-3.914 1.39-2.523 1.39-4.75 3.677-6.53 1.63-1.278 2.254-2.497 4.153-3.327 1.125-.478 2.048-.388 2.967-1.188.89-.774 1.63-1.126 2.25-2.135.419-.684.508-1.547 1.308-1.547 1.395 0 2.165.478 3.562.478 2.788 0 3.409-3.088 4.388-5.704.359-1.01 1.245-1.308 1.776-2.258.684-1.215-.027-2.194.242-3.559.15-.743.68-1.042.833-1.782.173-.89-.182-1.69.355-2.374.475-.594 1.242-.296 1.896-.714 1.095-.68.385-2.407 1.543-2.965.98-.478 1.985.415 2.851-.239 1.215-.923 1.063-2.347 1.063-3.917 0-1.484-.472-2.32-.472-3.802 0-1.663.206-2.612.472-4.272 3.442 3.828 1.961 7.715 3.797 12.466.56 1.514 2.257 1.9 2.257 3.533v.979c-.206.03-.236.358-.475.358-.415 0-.537-.597-.952-.597-1.215 0-1.75 1.069-2.964 1.069-.03.265-.117.448-.117.714 0 .235.352.235.352.474 0 .591-.471.834-.471 1.425 0 2.938 2.609 4.186 2.609 7.124 0 .89-.86 1.186-1.656 1.547-1.219.562-1.219 1.836-2.26 2.73-1.451 1.244-2.7 1.663-3.798 3.207.415.295.953.415.953.95 0 1.364-2.022 1.48-2.022 2.844 0 .389.594.449.594.834 0 1.663-1.895 2.141-1.895 3.801 0 .684.534.98.59 1.663l-1.3 5.223c.351 2.141.946 3.263.946 5.401 0 3.33-.505 7.663-3.824 7.663h-3.27c-1.3 0-2.164-.03-3.349.471-1.72.747-1.367 2.646-2.018 4.392-.534 1.458-1.543 2.198-1.543 3.772v.98h.683c5.49 0 7.595-5.223 13.085-5.223 1.6 0 2.433.83 4.033.83 1.424 0 1.63-1.69 1.898-3.088.206-1.098.591-1.72.71-2.848.326-2.852 1.425-4.273 1.54-7.125.124-3.356.864-5.435 2.972-8.074 1.424-1.783 1.573-3.237 3.203-4.87.298 1.839 1.215 2.646 1.779 4.395.86 2.613.83 4.393 2.376 6.65 2.194 3.207 5.812 4.187 5.812 8.074 0 2.318-.979 3.533-1.779 5.697-1.722 4.635-2.582 7.334-4.982 11.64-.833 1.51-2.552 1.51-3.322 3.088l.116.475 3.797.594c3.323-.833 5.102-1.697 8.07-3.327 1.629-.89 1.928-2.762 3.796-2.964 1.096-.123 1.84.295 2.848-.123 1.866-.77 2.58-2.494 4.63-2.494 2.102 0 3.44 2.109 3.44 4.217 0 2.729.295 5.936-2.374 6.59-.269-.564-.833-.804-.833-1.424 0-1.365 1.185-1.962 1.185-3.327 0-.83-.83-1.305-1.66-1.305-.949 0-1.42.595-2.373.714-.03.382-.116.591-.116.976 0 .833.92 1.04 1.304 1.753 1.75 3.118 3.622 4.273 5.577 7.244 1.125 1.69 2.818 1.69 4.033 3.324 2.582 6.205 6.23 9.378 6.23 16.118v3.386c0 2.968-2.015 4.509-4.806 5.903 2.14.538 3.203 2.44 3.203 4.638 0 .767-.77.95-1.063 1.66 2.61 1.959 1.836 4.927 4.15 7.241.653.654 1.487 0 2.373.242.893.236.893 1.186 1.424 1.896.8 1.1 1.457 1.723 2.018 2.968 1.779 3.831 2.93 6.295 6.287 8.908 1.394 1.065 1.901 2.729 3.677 2.729 1.487 0 2.317-.472 3.8-.472.917 0 1.77.057 2.567.186 3.01.482 5.294 1.89 7.637 4.442 1.899 2.079 2.759 3.802 5.34 4.87h.83v-.919c0-.475-.354-.744-.354-1.218 0-1.096 1.543-.92 2.609-1.186.74-.182 1.125-.594 1.898-.594 2.788 0 4.362 1.036 6.645 2.61.684.478.92 1.308 1.783 1.308 1.686 0 2.46-1.185 4.152-1.185 4.272 0 5.786 3.38 9.135 6.055 1.69 1.331 3.292.946 5.22 1.9 1.926.949 2.58 2.967 4.747 2.967.296 0 .415-.358.71-.358 2.464 0 3.237 2.735 5.697 2.735 1.63 0 1.278-2.257 2.492-3.326.74-.654 1.574-.508 2.374-1.07 3.113-2.283 3.853-5.046 7.358-6.65 3.47-1.573 5.218-2.97 8.54-4.75 1.66-.89 3.802-1.189 3.802-3.088 0-.355-.27-.564-.478-.833-1.424.717-2.105 1.663-3.678 1.663-1.04 0-2.257-.385-2.257-1.424 0-.833 1.012-.95 1.543-1.54.833-.894 1.484-1.338 2.493-2.022 1.75-1.186 3.057-1.395 4.746-2.613.83-.594.976-1.78 2.019-1.78 1.277 0 1.513 1.368 2.253 2.374 1.155 1.574 2.018 2.766 2.018 4.748 0 2.556-1.277 4.01-3.086 5.82-1.04 1.042-3.204.445-3.204 1.902 0 1.424.83 2.852 2.254 2.852 1.159 0 1.424-1.132 2.374-1.786 1.334-.89 2.403-.89 4.036-1.066l2.373.359c.65-.09 1.039-.153 1.663-.359l.471.12c0 .205.116.295.116.504 0 .65-.47.98-.47 1.634 0 1.51 1.363 2.018 2.25 3.2.806 1.072.922 2.616 2.257 2.616.743 0 .979-.12 1.663-.355 1.188-.299 1.626-1.308 2.848-1.308.83 0 .71 1.129.949 1.899-.329.18-.833.209-.833.594 0 .833.803 1.043 1.185 1.78.776 1.49.92 2.586 2.14 3.685.296-1.278 0-3.088 1.302-3.088 1.63 0 2.406.8 4.036 1.066 0 1.783.95 2.643 1.66 4.276.773 1.783.892 3.506 2.728 4.157.212-2.733.598-4.247.598-6.972 0-.389-.064-.598-.12-.983-.86.62-1.424 1.185-2.493 1.185-.916 0-1.042-1.095-1.424-1.899-.624-1.278-1.218-1.962-1.424-3.386.744-.116 1.155-.057 1.899-.057 2.728 0 4.212-.95 6.761-1.899 2.284-.83 3.887-.328 6.174-1.069 1.54-.508 2.015-1.517 3.32-2.493 2.671-1.989 4.002-3.416 6.409-5.82 2.493-2.496 3.293-4.362 5.812-6.889-1.361.329-2.075.8-3.32 1.428 0-.18-.119-.27-.119-.448 0-2.195 2.729-2.132 4.624-3.234-.591-.803-.95-1.394-.95-2.404 0-.355.093-.564.123-.92 1.484-.179 2.317-.477 3.798-.477.919 0 1.095 1.308 2.014 1.308 1.989 0 4.007-.206 4.747-2.019.355.445.355 1.189.95 1.189 1.363 0 2.107-.538 3.441-.714 1.424-.206 2.848.06 3.559-1.189.564.804 1.367.95 2.373.95 3.322 0 5.102-1.424 8.424-1.424.598 0 .83.474 1.427.474.591 0 .827-.474 1.424-.474 1.036 0 1.57.474 2.61.474 1.393 0 2.193-.15 3.56-.474l.711.12c3.057-1.25 6.645-2.023 6.645-5.343-1.6-3.011-1.696-3.456 0-1.783.505 0 .77-.239 1.185-.474.445 1.069.976 2.018 2.138 2.018.78 0 1.298-.64 1.47-1.397.05-.193.073-.392.073-.591v-2.198c0-1.75.714-2.733.714-4.482 0-1.395-.481-2.165-.481-3.56h-.916c-.415 0-.595.323-.98.472v-.95l.834-2.732c-.27-.415-.598-.68-.598-1.185 0-2.254 2.022-3.207 2.022-5.461 0-.24-.362-.24-.362-.478 0-2.251 1.842-3.204 1.842-5.462v-3.562c0-1.633 1.6-2.284 1.6-3.918 0-1.992-1.066-2.997-1.066-4.986 0-1.219 1.544-1.517 1.544-2.732 0-.266-.478-.21-.478-.475 0-2.284 1.779-3.297 1.779-5.581.926.146 1.427-.71 1.782-1.544.505-1.222 1.544-1.753 1.544-3.087 0-2.434 1.543-3.56 2.015-5.937.262-1.314.74-2.612 1.526-3.519.571-.654 1.295-1.105 2.214-1.208a3.4 3.4 0 0 1 .415-.023c.385 0 .565.358.95.358.205 0 .265-.212.474-.242-.594-1.215-.833-1.986-.833-3.324 0-.62.68-.949 1.308-.949 1.37.793 1.663 2.825.355-2.493-.265-.445-.445-.98-.71-1.425 1.955-1.454 2.964-3.087 2.964-5.547v-2.44c0-.621-.833-.77-.833-1.395 0-1.275 1.069-1.69 1.547-2.848 1.005-2.464 2.373-3.563 3.913-5.7 3.266-4.456 4.627-7.806 4.627-13.3 0-.505-.086-1.186-.594-1.186-1.006 0-1.391.834-2.37 1.066-.06-.95 0-1.45 0-2.4 0-.98-.95-1.368-.95-2.348 0-.239.326-.269.356-.474.474.355.8.833 1.424.833.534 0 .654-.717 1.185-.717.654 0 .893.717 1.543.717 1.162 0 2.377-.628 2.377-1.783 0-.478-.359-.714-.359-1.192 0-1.899 2.373-2.344 2.373-4.243v-3.38c0-.567.535-.922 1.1-.922h.743c-.03 1.158-.27 1.839 0 2.968.886-1.574.886-2.733 1.839-4.273 1.6-2.586 4.092-2.852 5.453-5.584.329-.68.213-1.275.594-1.896 1.159-1.813 3.207-1.192 5.225-1.902 1.955-.684 2.4-2.288 4.152-3.443.86-.568 1.78-.983 1.78-2.019 0-1.338-.21-3.09-1.544-3.09-.21 0-.266.242-.475.242 0-1.13-.474-1.723-.474-2.852 0-1.395 2.31-.8 2.967-2.019.445-.833.086-1.573.59-2.373 1.458-2.261 3.353-2.852 4.392-5.346.95-2.347 1.334-3.801 1.783-6.294.116-.651.796-.767 1.181-1.308 1.099-1.451 1.308-2.61 1.666-4.393.532-3.323 2.254-4.956 2.254-8.28 0-.833.057-1.334 0-2.164-1.693-.27-1.308-2.467-1.308-4.157 0-1.899.74-2.911 1.189-4.75.83-3.327.886-5.316 1.898-8.553.445-1.48 1.66-2.075 1.66-3.652 0-.588-.116-.886-.116-1.48 0-1.305 1.301-1.754 1.301-3.062 0-.471-.355-.71-.355-1.185 0-3.27 2.137-4.807 2.137-8.074 0-1.428-1.424-2.38-2.847-2.38-.684 0-1.07.298-1.663.597l.12-.475c.978-1.958 3.202-1.514 4.51-3.203 1.835-2.407.95-4.721 1.899-7.603.71-2.138 2.608-2.968 2.608-5.226 0-3.054-.949-4.777-.949-7.835M765.34 752.572c0-1.73-7.826-8.04-7.826-5.85 0 1.992-1.696 3.593-3.685 3.593-1.745 0-2.462-1.13-4.036-1.9-1.095 2.703-2.516 5.223-5.453 5.223-1.099 0-1.394-1.421-2.493-1.421-1.484 0-1.955 1.66-3.442 1.66-1.514 0-2.314-.95-3.827-.95-.21 0-.355.12-.565.12v1.04c0 1.008 2.835 7.954 2.254 6.798-1.185-1.603-1.928-2.612-3.439-3.917-1.065-.923-1.66-2.022-3.086-2.022-1.78 0-1.75 2.377-2.015 4.157-1.514-.744-2.138-2.022-3.824-2.022h-2.317c-2.642 0-4.006-1.122-6.436-2.135-4.746-1.959-7.359-3.383-12.109-5.342-2.25-.923-3.349-2.496-5.812-2.496-.77 0-1.125.594-1.895.594-1.248 0-1.663-1.066-2.848-1.424-1.63-.505-2.702-.415-4.272-1.07a7.943 7.943 0 0 1-.83-.949l-.474.12.594 2.968c-.388 2.377-2.138 3.326-2.138 5.7 0 .59.678.744.83 1.305 1.125 3.947 2.729 6.085 2.729 10.209 0 .272-.472.212-.472.481 0 2.523 1.955 3.443 3.084 5.7 2.964 5.966 7.71 8.55 7.71 15.196 1.544 0 1.989 1.544 2.613 2.968 1.095 2.523 3.319 3.416 3.319 6.145v.98c-.65-.475-1.036-.83-1.776-1.066-.664 2.437.203-.81-1.069-1.786-1.573-1.215-2.904-1.75-3.797-3.56l-.478-.355c.448 2.666 1.693 3.862 2.022 6.53.176 1.485-.266 2.401.235 3.799.445 1.218 1.278 1.753 1.663 2.968.976 2.941.86 4.87 2.37 7.603 2.018 3.592 4.84 4.392 6.413 8.19 1.626 1.81 2.546 2.971 3.91 4.987 1.129 1.693.329 4.75 2.377 4.75 1.36 0 1.72-1.663 3.083-1.663.8 0 1.129.598 1.929.598 1.63 0 2.579-.12 4.209-.12 2.585 0 3.501 2.73 6.084 2.73 2.137 0 1.218-3.208 2.49-4.868.83-1.099 2.137-1.454 2.137-2.848 0-.359-.355-.508-.475-.834.475-.239.953-.415.953-.946 0-1.607-.953-2.407-1.902-3.685 1.128.18 1.723.684 2.848.594l-.116.475c.62 1.159 1.633 1.783 2.964 1.783 1.454 0 1.188-2.108 1.188-3.566 0-1.394-.508-2.164-.594-3.559.385.266.714.445 1.185.595v-.923c0-1.54 1.188-2.879 2.732-2.879.71 0 .949.83.949 1.544 0 4.641-.003-4.273 1.78-4.273 3.438 0 6.764 2.254 6.764 5.7 0 .767-.89 1.063-1.663 1.063-1.275 0-1.544-1.275-2.493-2.131l-.475.119c0 .767-.056 1.361-.594 1.899.803.325 1.368.471 2.257.471.06.894 0 1.368 0 2.258 0 .65.65 1.066 1.305 1.066 1.098 0 1.185-1.272 1.663-2.251.445.8.594 1.57 1.424 2.015.292-.355.534-.594.59-1.066l-.59-3.562c.441-.89 1.181-1.189 1.181-2.141 0-1.484-3.083-.77-3.083-2.255 0-2.317 1.988-3.147 2.257-5.461l-1.308-3.088c1.869-2.078 2.642-3.741 2.851-6.533 0-.206-.235-.292-.235-.502 0-1.928.946-2.848 1.417-4.72.627-2.348.98-4.423 3.206-5.342-.03.594-.355.86-.355 1.45 0 .18.12.266.12.449.86.116 1.158.8 2.014.95-.146-.89-.949-1.25-.949-2.139 0-1.335.833-1.989.833-3.323 0-1.574-.474-2.464-.474-4.037 0-1.664 1.065-2.494 1.065-4.157 0-1.723-1.185-2.526-1.185-4.243v-2.44c0-1.185.359-1.87.359-3.058 0-1.039-.598-1.54-.598-2.58v-3.356c-.026-.202-.235-.265-.235-.471 0-1.1 1.779-1.162 1.779-2.258m-91.248-37.405c0-.8-1.364-.89-2.137-1.069a8.21 8.21 0 0 0-.83-.95l-.475-.119c0 .744.299 1.222 0 1.903-.325.8-1.66.65-1.66 1.543 0 .651.356 1.006.356 1.664 0 1.271-.833 1.899-.833 3.174v.98c.418.029.657.089 1.072.122v5.222c.205.057.355.233.59.233.714 0 .804-.86 1.424-1.182 1.6-.893 2.732-2.079 2.732-3.921 0-1.574-.59-2.464-.59-4.037 0-1.395.351-2.168.351-3.563"/>
    </g>
    <g transform="translate(677 659)">
      <circle cx="14.5" cy="14.5" r="14.5" fill="#08415C"/>
      <path fill="#16B2DE" fill-rule="nonzero" d="M15.943 9.747a4.037 4.037 0 0 0-1.42-.223 2.19 2.19 0 0 0-1.34.392c-.311.21-.5.559-.503.934-.018.298.046.595.185.859.142.215.339.388.57.502.472.241.97.432 1.482.57.578.156 1.002.278 1.282.368.36.123.71.276 1.045.455.357.166.68.4.948.687.59.639.9 1.486.86 2.354a3.45 3.45 0 0 1-1.34 2.884 5.37 5.37 0 0 1-3.408 1.043c-2 0-3.51-.253-4.53-.76v-3.414l2.218-.173v1.177c0 .72.688 1.08 2.064 1.08 1.376 0 2.065-.5 2.068-1.5.01-.331-.12-.652-.358-.883a2.037 2.037 0 0 0-.7-.466 8.328 8.328 0 0 0-.825-.248c-.319-.078-.63-.16-.936-.243a9.122 9.122 0 0 1-.983-.333 7.228 7.228 0 0 1-1.18-.6c-.837-.542-1.257-1.445-1.257-2.716a3.47 3.47 0 0 1 1.356-2.935 5.46 5.46 0 0 1 3.413-1.055 9.274 9.274 0 0 1 4.073.98v2.944l-2.218.172v-1.016a.82.82 0 0 0-.566-.836z"/>
    </g>
    <path fill="#08415C" d="M645.955 643.032h1.428V653h-1.596v-6.188L643.141 653h-1.19l-2.66-6.118V653h-1.596v-9.968h1.428l3.43 7.798 3.402-7.798zm6.612 9.968v-9.968h6.664v1.428h-4.9v2.758h4.606v1.428h-4.606v2.926h4.9V653h-6.664zm11.33 0v-9.968h1.806v8.484h4.662V653h-6.468zm16.972-5.152c.579.168 1.024.462 1.337.882.313.42.469.938.469 1.554 0 .85-.301 1.514-.903 1.995-.602.48-1.44.721-2.513.721h-4.522v-9.968h4.382c1.027 0 1.834.231 2.422.693.588.462.882 1.099.882 1.911 0 .523-.138.978-.413 1.365-.275.387-.656.67-1.141.847zm-4.368-.616h2.324c1.25 0 1.876-.467 1.876-1.4 0-.467-.154-.817-.462-1.05-.308-.233-.78-.35-1.414-.35h-2.324v2.8zm2.562 4.368c.653 0 1.132-.117 1.435-.35.303-.233.455-.602.455-1.106 0-.513-.152-.891-.455-1.134-.303-.243-.782-.364-1.435-.364h-2.562v2.954h2.562zm12.758 1.526c-.961 0-1.799-.208-2.513-.623a4.174 4.174 0 0 1-1.652-1.778c-.387-.77-.581-1.678-.581-2.723 0-1.036.191-1.939.574-2.709.383-.77.931-1.36 1.645-1.771.714-.41 1.556-.616 2.527-.616.97 0 1.813.205 2.527.616a4.045 4.045 0 0 1 1.638 1.771c.378.77.567 1.673.567 2.709 0 1.045-.191 1.953-.574 2.723a4.143 4.143 0 0 1-1.638 1.778c-.71.415-1.55.623-2.52.623zm0-1.442c.924 0 1.643-.317 2.156-.952.513-.635.77-1.545.77-2.73 0-1.176-.257-2.079-.77-2.709-.513-.63-1.232-.945-2.156-.945-.924 0-1.643.313-2.156.938-.513.625-.77 1.53-.77 2.716 0 1.185.257 2.095.77 2.73.513.635 1.232.952 2.156.952zm13.696 1.442c-1.372 0-2.41-.352-3.115-1.057-.705-.705-1.057-1.738-1.057-3.101v-5.936h1.778v6.034c0 .859.2 1.51.602 1.953.401.443.999.665 1.792.665.775 0 1.365-.224 1.771-.672.406-.448.609-1.097.609-1.946v-6.034h1.778v5.936c0 1.353-.355 2.385-1.064 3.094-.71.71-1.74 1.064-3.094 1.064zm17.448-.126h-1.904l-1.274-3.318c-.112-.308-.285-.523-.518-.644-.233-.121-.537-.182-.91-.182h-1.806V653h-1.792v-9.968h4.27c1.13 0 1.988.247 2.576.742.588.495.882 1.204.882 2.128 0 .663-.175 1.225-.525 1.687-.35.462-.847.791-1.491.987.588.121 1.013.532 1.274 1.232l1.218 3.192zm-4.186-5.544c.681 0 1.185-.126 1.512-.378.327-.252.49-.635.49-1.148 0-.504-.161-.88-.483-1.127-.322-.247-.828-.371-1.519-.371h-2.254v3.024h2.254zm15.516-4.424h1.694V653h-1.344l-5.376-6.986V653h-1.68v-9.968h1.344l5.362 6.972v-6.972zm6.864 9.968v-9.968h6.664v1.428h-4.9v2.758h4.606v1.428h-4.606v2.926h4.9V653h-6.664z"/>
    <g transform="translate(47 508)">
      <circle cx="14.5" cy="14.5" r="14.5" fill="#08415C"/>
      <path fill="#16B2DE" fill-rule="nonzero" d="M15.943 9.747a4.037 4.037 0 0 0-1.42-.223 2.19 2.19 0 0 0-1.34.392c-.311.21-.5.559-.503.934-.018.298.046.595.185.859.142.215.339.388.57.502.472.241.97.432 1.482.57.578.156 1.002.278 1.282.368.36.123.71.276 1.045.455.357.166.68.4.948.687.59.639.9 1.486.86 2.354a3.45 3.45 0 0 1-1.34 2.884 5.37 5.37 0 0 1-3.408 1.043c-2 0-3.51-.253-4.53-.76v-3.414l2.218-.173v1.177c0 .72.688 1.08 2.064 1.08 1.376 0 2.065-.5 2.068-1.5.01-.331-.12-.652-.358-.883a2.037 2.037 0 0 0-.7-.466 8.328 8.328 0 0 0-.825-.248c-.319-.078-.63-.16-.936-.243a9.122 9.122 0 0 1-.983-.333 7.228 7.228 0 0 1-1.18-.6c-.837-.542-1.257-1.445-1.257-2.716a3.47 3.47 0 0 1 1.356-2.935 5.46 5.46 0 0 1 3.413-1.055 9.274 9.274 0 0 1 4.073.98v2.944l-2.218.172v-1.016a.82.82 0 0 0-.566-.836z"/>
    </g>
    <g transform="translate(539 584)">
      <circle cx="14.5" cy="14.5" r="14.5" fill="#08415C"/>
      <path fill="#16B2DE" fill-rule="nonzero" d="M15.943 9.747a4.037 4.037 0 0 0-1.42-.223 2.19 2.19 0 0 0-1.34.392c-.311.21-.5.559-.503.934-.018.298.046.595.185.859.142.215.339.388.57.502.472.241.97.432 1.482.57.578.156 1.002.278 1.282.368.36.123.71.276 1.045.455.357.166.68.4.948.687.59.639.9 1.486.86 2.354a3.45 3.45 0 0 1-1.34 2.884 5.37 5.37 0 0 1-3.408 1.043c-2 0-3.51-.253-4.53-.76v-3.414l2.218-.173v1.177c0 .72.688 1.08 2.064 1.08 1.376 0 2.065-.5 2.068-1.5.01-.331-.12-.652-.358-.883a2.037 2.037 0 0 0-.7-.466 8.328 8.328 0 0 0-.825-.248c-.319-.078-.63-.16-.936-.243a9.122 9.122 0 0 1-.983-.333 7.228 7.228 0 0 1-1.18-.6c-.837-.542-1.257-1.445-1.257-2.716a3.47 3.47 0 0 1 1.356-2.935 5.46 5.46 0 0 1 3.413-1.055 9.274 9.274 0 0 1 4.073.98v2.944l-2.218.172v-1.016a.82.82 0 0 0-.566-.836z"/>
    </g>
    <g transform="translate(813 530)">
      <circle cx="14.5" cy="14.5" r="14.5" fill="#08415C"/>
      <path fill="#16B2DE" fill-rule="nonzero" d="M15.943 9.747a4.037 4.037 0 0 0-1.42-.223 2.19 2.19 0 0 0-1.34.392c-.311.21-.5.559-.503.934-.018.298.046.595.185.859.142.215.339.388.57.502.472.241.97.432 1.482.57.578.156 1.002.278 1.282.368.36.123.71.276 1.045.455.357.166.68.4.948.687.59.639.9 1.486.86 2.354a3.45 3.45 0 0 1-1.34 2.884 5.37 5.37 0 0 1-3.408 1.043c-2 0-3.51-.253-4.53-.76v-3.414l2.218-.173v1.177c0 .72.688 1.08 2.064 1.08 1.376 0 2.065-.5 2.068-1.5.01-.331-.12-.652-.358-.883a2.037 2.037 0 0 0-.7-.466 8.328 8.328 0 0 0-.825-.248c-.319-.078-.63-.16-.936-.243a9.122 9.122 0 0 1-.983-.333 7.228 7.228 0 0 1-1.18-.6c-.837-.542-1.257-1.445-1.257-2.716a3.47 3.47 0 0 1 1.356-2.935 5.46 5.46 0 0 1 3.413-1.055 9.274 9.274 0 0 1 4.073.98v2.944l-2.218.172v-1.016a.82.82 0 0 0-.566-.836z"/>
    </g>
    <g transform="translate(857 398)">
      <circle cx="14.5" cy="14.5" r="14.5" fill="#08415C"/>
      <path fill="#16B2DE" fill-rule="nonzero" d="M15.943 9.747a4.037 4.037 0 0 0-1.42-.223 2.19 2.19 0 0 0-1.34.392c-.311.21-.5.559-.503.934-.018.298.046.595.185.859.142.215.339.388.57.502.472.241.97.432 1.482.57.578.156 1.002.278 1.282.368.36.123.71.276 1.045.455.357.166.68.4.948.687.59.639.9 1.486.86 2.354a3.45 3.45 0 0 1-1.34 2.884 5.37 5.37 0 0 1-3.408 1.043c-2 0-3.51-.253-4.53-.76v-3.414l2.218-.173v1.177c0 .72.688 1.08 2.064 1.08 1.376 0 2.065-.5 2.068-1.5.01-.331-.12-.652-.358-.883a2.037 2.037 0 0 0-.7-.466 8.328 8.328 0 0 0-.825-.248c-.319-.078-.63-.16-.936-.243a9.122 9.122 0 0 1-.983-.333 7.228 7.228 0 0 1-1.18-.6c-.837-.542-1.257-1.445-1.257-2.716a3.47 3.47 0 0 1 1.356-2.935 5.46 5.46 0 0 1 3.413-1.055 9.274 9.274 0 0 1 4.073.98v2.944l-2.218.172v-1.016a.82.82 0 0 0-.566-.836z"/>
    </g>
    <path fill="#08415C" d="M33.226 490.032h4.326c1.073 0 1.909.259 2.506.777.597.518.896 1.225.896 2.121 0 .896-.301 1.605-.903 2.128-.602.523-1.435.784-2.499.784h-2.52V500h-1.806v-9.968zm4.116 4.41c.625 0 1.099-.128 1.421-.385.322-.257.483-.628.483-1.113 0-.495-.159-.87-.476-1.127-.317-.257-.793-.385-1.428-.385h-2.31v3.01h2.31zM45.55 500v-9.968h6.664v1.428h-4.9v2.758h4.606v1.428h-4.606v2.926h4.9V500H45.55zm19.534 0H63.18l-1.274-3.318c-.112-.308-.285-.523-.518-.644-.233-.121-.537-.182-.91-.182h-1.806V500H56.88v-9.968h4.27c1.13 0 1.988.247 2.576.742.588.495.882 1.204.882 2.128 0 .663-.175 1.225-.525 1.687-.35.462-.847.791-1.491.987.588.121 1.013.532 1.274 1.232L65.084 500zm-4.186-5.544c.681 0 1.185-.126 1.512-.378.327-.252.49-.635.49-1.148 0-.504-.161-.88-.483-1.127-.322-.247-.828-.371-1.519-.371h-2.254v3.024h2.254zM71.766 500v-8.484h-3.248v-1.484h8.33v1.484h-3.262V500h-1.82zm16.216-9.968h1.792V500h-1.792v-4.326h-5.11V500h-1.778v-9.968h1.778v4.172h5.11v-4.172zM517.337 576l-.994-2.338h-4.872L510.463 576h-1.82l4.508-9.968h1.47l4.522 9.968h-1.806zm-5.264-3.738h3.668l-1.834-4.27-1.834 4.27zm11.148-6.23h3.668c1.633 0 2.9.434 3.801 1.302.9.868 1.351 2.09 1.351 3.668 0 1.587-.45 2.816-1.351 3.689-.9.873-2.168 1.309-3.801 1.309h-3.668v-9.968zm3.556 8.498c2.296 0 3.444-1.176 3.444-3.528 0-2.333-1.148-3.5-3.444-3.5h-1.75v7.028h1.75zm10.112 1.47v-9.968h6.664v1.428h-4.9v2.758h4.606v1.428h-4.606v2.926h4.9V576h-6.664zm11.33 0v-9.968h1.806v8.484h4.662V576h-6.468zm18.372 0l-.994-2.338h-4.872L559.717 576h-1.82l4.508-9.968h1.47l4.522 9.968h-1.806zm-5.264-3.738h3.668l-1.834-4.27-1.834 4.27zM572.475 576v-9.968h1.806V576h-1.806zm6.962-9.968h3.668c1.633 0 2.9.434 3.801 1.302.9.868 1.351 2.09 1.351 3.668 0 1.587-.45 2.816-1.351 3.689-.9.873-2.168 1.309-3.801 1.309h-3.668v-9.968zm3.556 8.498c2.296 0 3.444-1.176 3.444-3.528 0-2.333-1.148-3.5-3.444-3.5h-1.75v7.028h1.75zm10.112 1.47v-9.968h6.664v1.428h-4.9v2.758h4.606v1.428h-4.606v2.926h4.9V576h-6.664zm202.403-51.874a7.271 7.271 0 0 1-2.149-.308c-.667-.205-1.234-.5-1.701-.882l.616-1.316a5.26 5.26 0 0 0 1.519.805 5.529 5.529 0 0 0 1.729.259c.69 0 1.225-.121 1.603-.364.378-.243.567-.583.567-1.022 0-.373-.175-.66-.525-.861-.35-.2-.926-.39-1.729-.567-1.25-.27-2.16-.62-2.73-1.05-.57-.43-.854-1.055-.854-1.876 0-.588.159-1.11.476-1.568.317-.457.768-.817 1.351-1.078.583-.261 1.258-.392 2.023-.392.7 0 1.365.105 1.995.315.63.21 1.146.502 1.547.875l-.602 1.316c-.887-.71-1.867-1.064-2.94-1.064-.644 0-1.153.133-1.526.399s-.56.628-.56 1.085c0 .392.166.69.497.896.331.205.898.397 1.701.574.83.196 1.507.408 2.03.637.523.229.924.523 1.204.882.28.36.42.81.42 1.351 0 .597-.159 1.118-.476 1.561-.317.443-.775.786-1.372 1.029-.597.243-1.302.364-2.114.364zm16.65-10.094l-4.046 6.02V524h-1.806v-3.948l-4.046-6.02h2.058l2.884 4.508 2.898-4.508h2.058zm3.532 0h3.668c1.633 0 2.9.434 3.801 1.302.9.868 1.351 2.09 1.351 3.668 0 1.587-.45 2.816-1.351 3.689-.9.873-2.168 1.309-3.801 1.309h-3.668v-9.968zm3.556 8.498c2.296 0 3.444-1.176 3.444-3.528 0-2.333-1.148-3.5-3.444-3.5h-1.75v7.028h1.75zm16.818-8.498h1.694V524h-1.344l-5.376-6.986V524h-1.68v-9.968h1.344l5.362 6.972v-6.972zm6.864 9.968v-9.968h6.664v1.428h-4.9v2.758h4.606v1.428h-4.606v2.926h4.9V524h-6.664zm19.562-9.968l-4.046 6.02V524h-1.806v-3.948l-4.046-6.02h2.058l2.884 4.508 2.898-4.508h2.058zm-44.022-128.184c.579.168 1.024.462 1.337.882.313.42.469.938.469 1.554 0 .85-.301 1.514-.903 1.995-.602.48-1.44.721-2.513.721h-4.522v-9.968h4.382c1.027 0 1.834.231 2.422.693.588.462.882 1.099.882 1.911 0 .523-.138.978-.413 1.365-.275.387-.656.67-1.141.847zm-4.368-.616h2.324c1.25 0 1.876-.467 1.876-1.4 0-.467-.154-.817-.462-1.05-.308-.233-.78-.35-1.414-.35H814.1v2.8zm2.562 4.368c.653 0 1.132-.117 1.435-.35.303-.233.455-.602.455-1.106 0-.513-.152-.891-.455-1.134-.303-.243-.782-.364-1.435-.364H814.1v2.954h2.562zM833.2 391h-1.904l-1.274-3.318c-.112-.308-.285-.523-.518-.644-.233-.121-.537-.182-.91-.182h-1.806V391h-1.792v-9.968h4.27c1.13 0 1.988.247 2.576.742.588.495.882 1.204.882 2.128 0 .663-.175 1.225-.525 1.687-.35.462-.847.791-1.491.987.588.121 1.013.532 1.274 1.232L833.2 391zm-4.186-5.544c.681 0 1.185-.126 1.512-.378.327-.252.49-.635.49-1.148 0-.504-.161-.88-.483-1.127-.322-.247-.828-.371-1.519-.371h-2.254v3.024h2.254zm8.81 5.544v-9.968h1.806V391h-1.806zm10.336.126a7.271 7.271 0 0 1-2.149-.308c-.667-.205-1.234-.5-1.701-.882l.616-1.316a5.26 5.26 0 0 0 1.519.805 5.529 5.529 0 0 0 1.729.259c.69 0 1.225-.121 1.603-.364.378-.243.567-.583.567-1.022 0-.373-.175-.66-.525-.861-.35-.2-.926-.39-1.729-.567-1.25-.27-2.16-.62-2.73-1.05-.57-.43-.854-1.055-.854-1.876 0-.588.159-1.11.476-1.568.317-.457.768-.817 1.351-1.078.583-.261 1.258-.392 2.023-.392.7 0 1.365.105 1.995.315.63.21 1.146.502 1.547.875l-.602 1.316c-.887-.71-1.867-1.064-2.94-1.064-.644 0-1.153.133-1.526.399s-.56.628-.56 1.085c0 .392.166.69.497.896.331.205.898.397 1.701.574.83.196 1.507.408 2.03.637.523.229.924.523 1.204.882.28.36.42.81.42 1.351 0 .597-.159 1.118-.476 1.561-.317.443-.775.786-1.372 1.029-.597.243-1.302.364-2.114.364zm14.774-5.278c.579.168 1.024.462 1.337.882.313.42.469.938.469 1.554 0 .85-.301 1.514-.903 1.995-.602.48-1.44.721-2.513.721h-4.522v-9.968h4.382c1.027 0 1.834.231 2.422.693.588.462.882 1.099.882 1.911 0 .523-.138.978-.413 1.365-.275.387-.656.67-1.141.847zm-4.368-.616h2.324c1.25 0 1.876-.467 1.876-1.4 0-.467-.154-.817-.462-1.05-.308-.233-.78-.35-1.414-.35h-2.324v2.8zm2.562 4.368c.653 0 1.132-.117 1.435-.35.303-.233.455-.602.455-1.106 0-.513-.152-.891-.455-1.134-.303-.243-.782-.364-1.435-.364h-2.562v2.954h2.562zm15.908 1.4l-.994-2.338h-4.872L870.162 391h-1.82l4.508-9.968h1.47l4.522 9.968h-1.806zm-5.264-3.738h3.668l-1.834-4.27-1.834 4.27zm17.854-6.23h1.694V391h-1.344l-5.376-6.986V391h-1.68v-9.968h1.344l5.362 6.972v-6.972zM896.49 391v-9.968h6.664v1.428h-4.9v2.758h4.606v1.428h-4.606v2.926h4.9V391h-6.664z"/>
  </g>
</svg>
