<svg xmlns="http://www.w3.org/2000/svg" width="40" height="25">
  <g fill="none" fill-rule="evenodd">
    <g transform="translate(-314 -15)">
      <g id="menu-group" transform="translate(316 16)">
        <path id="menu-text" fill="#08415C" d="M5.2171 18h1.1026v5.9251h-1.237v-3.2372l-1.4702 3.2372h-.9053L1.228 20.7295v3.1956H0V18h1.1116l2.0617 4.369L5.2171 18zm5.9791 5.9251V18h4.4014v1.007h-3.0388v1.398h2.8506v1.0152h-2.8506v1.498h3.0388v1.0069h-4.4014zM24.3645 18h1.3178v5.9251h-1.0399l-3.1822-3.778v3.778h-1.3088V18h1.0309l3.1822 3.7698V18zm8.8925 6c-.8964 0-1.5777-.2136-2.0439-.6408-.466-.4272-.6992-1.054-.6992-1.8807V18h1.3716v3.5368c0 .4715.118.8307.354 1.0776.2361.247.5752.3703 1.0175.3703.4422 0 .7799-.1234 1.013-.3703.233-.2469.3495-.606.3495-1.0776V18H36v3.4785c0 .821-.2346 1.4466-.7037 1.8766-.4691.43-1.1489.6449-2.0393.6449z"/>
        <path id="line-bottom" stroke="#16B2DE" stroke-linecap="round" stroke-width="3.5" d="M.6 9h34.9857"/>
        <path id="line-top" stroke="#16B2DE" stroke-linecap="round" stroke-width="3.5" d="M.6 1h34.9857"/>
      </g>
    </g>
  </g>
</svg>
