<svg xmlns="http://www.w3.org/2000/svg" width="24" height="24">
  <path fill="#08415C" d="M23.4126 20.5763l-5.2138-5.2138c-.0277-.0277-.0603-.047-.0892-.0728 1.026-1.5563 1.6247-3.4191 1.6247-5.4225C19.7343 4.4177 15.3166 0 9.867 0 4.4177 0 0 4.4177 0 9.8671c0 5.4494 4.4176 9.8672 9.867 9.8672 2.0035 0 3.8662-.5988 5.4225-1.6247.0258.0289.045.0614.0727.089l5.214 5.214c.7833.7832 2.053.7832 2.8364 0 .7832-.7832.7832-2.053 0-2.8363zM9.8671 16.3137c-3.5604 0-6.4466-2.8862-6.4466-6.4466s2.8863-6.4466 6.4466-6.4466c3.5603 0 6.4466 2.8863 6.4466 6.4466 0 3.5604-2.8863 6.4466-6.4466 6.4466z"/>
</svg>
